<svg xmlns="http://www.w3.org/2000/svg" width="155" height="40" fill="none">
    <g fill="#fff">
        <path
            d="M14.311 30.041a12.232 12.232 0 00.033 1.036h6.215a4.813 4.813 0 01-.082-1.036H14.31zM6.728 30.041v1.036H.83v-1.036h5.897zM14.366 28.988h6.256c.08-.302.192-.59.336-.862.034-.06.07-.117.106-.174h-6.547a10.8 10.8 0 00-.15 1.036zM6.728 27.952v1.036H.83v-1.036h5.897zM13.76 26.898c-.246-.235-.59-.416-1.028-.541-.483-.125-1.17-.188-2.064-.188h-3.94v.729H.83v-1.036h13.241v1.036h-.312zM14.784 26.898h7.304c.085-.058.173-.114.264-.166.59-.34 1.269-.51 2.037-.51s1.439.17 2.01.51c.091.052.18.108.264.166h7.287a9.2 9.2 0 00-.26-.702 9.933 9.933 0 00-.141-.334H15.18c-.05.11-.1.221-.147.334a9.35 9.35 0 00-.25.702zM15.746 24.808h17.25a8.865 8.865 0 00-.739-1.035H16.493c-.272.326-.52.671-.746 1.035zM17.53 22.719h13.698a9.15 9.15 0 00-1.462-1.036H18.998c-.524.3-1.013.646-1.468 1.036zM14.072 21.683v1.036H.724a4.406 4.406 0 00-.108-.49 2.651 2.651 0 00-.202-.546h13.658zM40.647 21.683l-.075.037a9.722 9.722 0 00-1.615.999H52.14l.01-.035c.125-.393.322-.697.59-.91v-.091H40.647zM57.687 21.683c-.523.3-1.012.646-1.467 1.036h13.697a9.15 9.15 0 00-1.462-1.036H57.687zM99.013 21.683h8.374c.315.169.606.36.873.573.183.147.352.301.509.463h-9.756v-1.036zM82.214 21.683h6.74a3.203 3.203 0 00-.221.519c-.05.151-.093.323-.128.517h-6.104a4.984 4.984 0 00-.094-.49 3.098 3.098 0 00-.193-.546zM74.217 21.683h6.657c-.075.16-.14.341-.192.546-.037.147-.068.31-.094.49h-6.084a4.955 4.955 0 00-.095-.49 3.09 3.09 0 00-.192-.546zM70.947 23.773H55.181c-.272.326-.52.671-.746 1.035h17.249a8.876 8.876 0 00-.739-1.035zM74.597 24.808v-.515c0-.182-.003-.355-.008-.52h5.913c-.005.165-.008.338-.008.52v.515h-5.897zM72.238 25.862H53.87c-.05.11-.1.221-.146.334a9.35 9.35 0 00-.251.702h7.304c.085-.058.173-.114.264-.166.59-.34 1.269-.51 2.037-.51.769 0 1.439.17 2.01.51.092.052.18.108.264.166h7.288a9.157 9.157 0 00-.26-.702 9.731 9.731 0 00-.142-.334zM74.597 26.898v-1.036h5.897v1.036h-5.897zM72.916 27.952h-6.561c.035.056.068.114.1.174.153.272.271.56.355.862h6.262a10.463 10.463 0 00-.156-1.036zM74.597 28.988v-1.036h5.897v1.036h-5.897zM73.13 30.041h-6.166a4.876 4.876 0 01-.088 1.036h6.22a11.871 11.871 0 00.033-1.036zM74.597 31.077v-1.036h5.897v1.036h-5.897zM72.962 32.131h-6.468a3.524 3.524 0 01-.807 1.036h7.033c.099-.337.18-.682.242-1.036zM74.597 33.167V32.13h5.897v1.036h-5.897zM72.342 34.22h-18.58c.155.36.327.706.518 1.037h17.558c.187-.331.355-.676.504-1.036zM74.597 35.257V34.22h5.897v1.036h-5.897zM71.14 36.31H54.987a9.172 9.172 0 00.94 1.036h14.278c.037-.035.074-.07.11-.107.298-.292.573-.601.825-.929zM74.535 37.346c.034-.303.054-.648.06-1.036h5.901c.007.388.026.733.06 1.036h-6.02zM68.856 38.4H57.287c.534.342 1.107.634 1.717.876 1.233.483 2.591.724 4.075.724 1.465 0 2.814-.241 4.047-.724a9.876 9.876 0 001.73-.876zM50.65 37.346V36.31H37.57c.316.375.665.72 1.046 1.036H50.65zM40.206 38.4H50.65v1.359a3.87 3.87 0 00-1.18-.188c-.267 0-.651.036-1.152.107-.482.072-1.045.108-1.688.108-2.306 0-4.29-.385-5.951-1.153a10.312 10.312 0 01-.473-.233zM31.515 37.346a8.918 8.918 0 00.936-1.036H16.297a9.172 9.172 0 00.941 1.036h14.277zM18.598 38.4h11.569a9.875 9.875 0 01-1.73.876c-1.234.483-2.583.724-4.048.724-1.483 0-2.841-.241-4.074-.724a10.072 10.072 0 01-1.717-.876zM6.801 37.346a9.41 9.41 0 01-.07-1.036H.828c-.007.388-.027.733-.06 1.036h6.032zM.545 38.4h6.528c.146.342.325.598.54.77v.24H.08v-.24c.192-.179.347-.435.465-.77zM.83 35.257h5.898V34.22H.83v1.036zM.83 33.167h5.898V32.13H.83v1.036zM14.472 32.131c.061.354.139.7.234 1.036h7.044a3.74 3.74 0 01-.828-1.036h-6.45zM27.805 32.131a3.52 3.52 0 01-.808 1.036h7.034c.098-.337.18-.682.242-1.036h-6.468zM35.675 32.131c.062.357.14.702.235 1.036h7.16a3.388 3.388 0 01-.898-1.036h-6.497zM41.777 31.077h-6.233a13.123 13.123 0 01-.038-1.021v-.015h6.165c0 .368.036.713.106 1.036zM52.61 31.077H45.84c.19-.23.336-.553.44-.968l.017-.068h5.836l.017.068c.104.415.257.738.459.968zM53.162 32.131c.06.354.138.7.233 1.036h7.044a3.742 3.742 0 01-.828-1.036h-6.45zM59.249 31.077h-6.216a12.35 12.35 0 01-.032-1.036h6.165l-.001.122c0 .32.028.625.084.914zM59.311 28.988c.08-.302.192-.59.336-.862.034-.06.07-.117.106-.174h-6.547a10.8 10.8 0 00-.15 1.036h6.255zM51.992 28.988a14.49 14.49 0 01-.028-.943v-.093h-5.495v.093c0 .345-.01.66-.028.943h5.55zM41.777 28.988c.08-.37.206-.716.378-1.036h-6.45a10.1 10.1 0 00-.15 1.036h6.222zM34.383 28.988a10.463 10.463 0 00-.156-1.036h-6.561c.035.056.068.114.1.174.153.272.271.56.355.862h6.262zM28.274 30.041a4.876 4.876 0 01-.087 1.036h6.22a11.871 11.871 0 00.033-1.036h-6.166zM35.98 26.898h7.07c.215-.174.452-.328.711-.46.68-.323 1.475-.483 2.386-.483.108 0 .215 0 .322.003v.94h5.495v-1.036H36.396c-.16.334-.299.68-.416 1.036zM36.998 24.808h14.966v-.274c0-.278.007-.532.02-.761H37.808a8.78 8.78 0 00-.81 1.035zM50.65 34.22H36.282c.155.361.332.707.532 1.037H50.65V34.22zM33.149 35.257c.187-.331.355-.676.504-1.036h-18.58c.154.36.327.705.517 1.036H33.15zM74.311 38.4h6.469c.118.335.273.591.465.77v.24h-7.398v-.24c.191-.179.346-.435.464-.77zM82.279 38.4c-.125.335-.297.591-.516.77v.24h8.605c1.608 0 2.984-.259 4.128-.777.169-.073.333-.15.49-.233H82.28zM100.836 38.4c1.239.817 2.9 1.225 4.985 1.225.483 0 .92-.027 1.314-.08.393-.054.688-.081.884-.081.304 0 .635.063.992.188V38.4h-8.175zM109.011 37.346h-9.357a4.452 4.452 0 01-.634-1.036h9.991v1.036zM110.89 38.4c-.118.335-.273.591-.465.77v.24h7.372v-.24c-.192-.179-.347-.435-.465-.77h-6.442zM117.126 37.346h-6.012c.034-.303.053-.648.06-1.036h5.901c.005.388.022.733.051 1.036zM120.308 38.4c-.111.335-.269.591-.474.77v.24h7.398v-.24c-.205-.179-.369-.435-.49-.77h-6.434zM126.516 37.346h-5.994c.034-.303.054-.648.06-1.036h5.875c.006.388.026.733.059 1.036zM128.083 38.4c-.138.338-.321.594-.55.77v.24h6.46v-.187a1.833 1.833 0 01-.25-.823h-5.66zM134.038 37.346h-5.703c.038-.3.063-.646.074-1.036h6.549l-.376.366a3.742 3.742 0 00-.544.67zM142.416 38.4a2.012 2.012 0 01-.248.823v.187h6.379v-.24c-.215-.176-.395-.432-.54-.77h-5.591zM147.745 37.346h-5.583a3.283 3.283 0 00-.584-.723l-.311-.313h6.403c.012.39.037.735.075 1.036zM147.663 35.257V34.22h-8.474l1.03 1.036h7.444zM136.038 35.257l1.063-1.036h-8.684v1.036h7.621zM126.454 35.257V34.22h-5.87v1.036h5.87zM117.073 35.257V34.22h-5.897v1.036h5.897zM109.011 35.257V34.22h-.694a2.305 2.305 0 01-.405.23 2.076 2.076 0 01-.336.108l-.043.01a3.455 3.455 0 01-.077.017c-.161.053-.339.08-.536.08-.411 0-.732-.098-.965-.295a1.22 1.22 0 01-.149-.15h-7.195c0 .362.03.707.09 1.036h10.31zM97.775 35.257c.113-.328.198-.673.255-1.036h-6.813c-.357.172-.81.257-1.359.257h-1.367v-.257h-5.897v1.036h15.181zM82.592 36.31c-.007.388-.03.733-.068 1.036h13.925a5.489 5.489 0 00.825-1.036H82.592zM82.594 33.167h5.897V32.13h-5.897v1.036zM82.594 31.077h5.897v-1.036h-5.897v1.036zM82.594 28.988H96.85a7.057 7.057 0 00-.945-1.036h-13.31v1.036zM82.594 26.898H94.46a14.035 14.035 0 00-2.24-1.036h-9.626v1.036zM82.594 24.808h6.144l-.247-.07v-.445c0-.182.004-.356.01-.52h-5.915c.006.165.008.338.008.52v.515zM99.013 23.773v1.035h10.974a4.99 4.99 0 00-.431-1.035H99.013zM112.049 23.773a6.47 6.47 0 00-.447 1.035h14.427a6.565 6.565 0 00-.448-1.035h-13.532zM128.409 23.773c.006.165.008.338.008.52v.515h5.736v-.515c0-.182.003-.355.008-.52h-5.752zM134.247 22.719h-5.923a5.2 5.2 0 00-.094-.49 3.13 3.13 0 00-.193-.546h6.497a3.05 3.05 0 00-.193.546c-.037.147-.068.31-.094.49zM141.945 23.773c.006.165.008.338.008.52v.515h5.71v-.515c0-.182.002-.355.008-.52h-5.726zM147.756 22.719h-5.896a4.899 4.899 0 00-.094-.49 2.83 2.83 0 00-.198-.546h6.48a2.83 2.83 0 00-.198.546 5.2 5.2 0 00-.094.49zM123.763 21.683h-9.886a6.124 6.124 0 00-1.115 1.036h12.118a5.946 5.946 0 00-1.117-1.036zM147.663 25.862h-5.71v1.036h5.71v-1.036zM147.663 27.952h-5.71v1.036h5.71v-1.036zM147.663 30.041h-5.71v.11l-.111-.11h-13.425v1.036h19.246v-1.036zM147.663 32.131h-19.246v1.036h19.246V32.13zM126.454 33.167V32.13h-5.87v1.036h5.87zM117.073 33.167V32.13h-5.897v1.036h5.897zM105.729 33.167c.033-.065.073-.128.119-.19.179-.196.465-.455.858-.777l.093-.069h-7.767c-.143.337-.25.682-.32 1.036h7.017zM98.114 33.167v-.083c0-.327-.018-.645-.053-.953H92.1a2.31 2.31 0 01.01 1.036h6.004zM91.44 31.077h6.42a6.386 6.386 0 00-.38-1.036h-8.4l.162.041c.999.263 1.731.595 2.197.995zM100.579 30.041a6.418 6.418 0 00-.948 1.036h8.493a7.52 7.52 0 00.924-1.036h-8.469zM111.176 30.041v1.036h5.897v-1.036h-5.897zM117.073 28.988h-5.897v-1.036h5.906a4.25 4.25 0 00-.009.28v.756zM120.584 30.041v1.036h5.87v-1.036h-5.87zM126.454 28.988h-5.87v-.755c0-.097-.003-.19-.009-.281h5.879v1.036zM128.417 28.988h5.736v-1.036h-5.736v1.036zM128.417 26.898h5.736v-1.036h-5.736v1.036zM126.299 25.862h-14.967a9.054 9.054 0 00-.13 1.036h6.153c.044-.079.093-.152.147-.22.304-.357.741-.536 1.313-.536s1.01.179 1.314.536c.057.068.109.141.155.22h6.144a9.286 9.286 0 00-.129-1.036zM110.206 26.898a6.83 6.83 0 00-.02-1.036h-7.555c.119.054.226.12.322.2.292.227.452.506.479.836h6.774zM103.092 27.952a.961.961 0 01-.032.04c-.21.255-.58.588-1.107.996h7.721a5.67 5.67 0 00.371-1.036h-6.953zM100.618 25.862h-1.605v.924h.214l.402-.403a2.34 2.34 0 01.456-.268c.162-.094.34-.179.533-.253zM136.313 27.952l-1.181 1.036h5.637l-1.054-1.036h-3.402zM138.643 26.898h-1.129l.526-.46h.134l.469.46zM.822 23.773h13.25v1.035H.831v-.515c0-.182-.003-.355-.01-.52zM152.234 0c-.334 0-.64.056-.917.17a2.128 2.128 0 00-1.217 1.177 2.345 2.345 0 00-.169.897c0 .326.057.625.169.898.113.274.274.512.482.716.208.2.453.356.735.468.277.109.583.163.917.163.33 0 .636-.054.918-.163.281-.112.526-.269.735-.468a2.13 2.13 0 00.481-.716c.113-.273.169-.572.169-.898 0-.325-.056-.624-.169-.897a2.147 2.147 0 00-1.216-1.178 2.45 2.45 0 00-.918-.169zm-.859 3.656a1.408 1.408 0 01-.572-.566 1.712 1.712 0 01-.202-.846c0-.325.067-.607.202-.845.134-.243.325-.432.572-.566.243-.135.53-.202.859-.202.325 0 .612.067.859.202.243.134.434.323.572.566.135.238.202.52.202.845 0 .321-.067.603-.202.846a1.458 1.458 0 01-.572.566 1.77 1.77 0 01-.859.202c-.329 0-.616-.067-.859-.202zm.176-1.789h.046a.316.316 0 01.13-.084.453.453 0 01.143-.02c.078 0 .15.02.215.059.06.039.108.09.143.156a.485.485 0 01.052.227.503.503 0 01-.111.339.392.392 0 01-.306.13.348.348 0 01-.273-.124h-.045v.885c.039.017.093.03.162.04.065.008.135.012.208.012.269 0 .508-.052.716-.156.204-.108.364-.258.481-.449.118-.195.176-.419.176-.67 0-.247-.054-.466-.163-.657a1.116 1.116 0 00-.455-.443 1.342 1.342 0 00-.664-.162c-.06 0-.112.002-.156.006a1.175 1.175 0 01-.117.007.806.806 0 01-.182-.02v.924z" />
        <path fill-rule="evenodd" clip-rule="evenodd"
            d="M15.034 15.635c-.482-1.197-.723-2.52-.723-3.967s.241-2.77.723-3.967a9.348 9.348 0 012.091-3.11 9.742 9.742 0 013.19-2.037c1.233-.482 2.591-.723 4.074-.723 1.466 0 2.815.241 4.048.723a9.383 9.383 0 013.19 2.038A9.02 9.02 0 0133.69 7.7c.5 1.197.75 2.52.75 3.967s-.25 2.77-.75 3.967a9.022 9.022 0 01-2.064 3.11 9.383 9.383 0 01-3.19 2.036c-1.232.483-2.581.724-4.047.724-1.483 0-2.841-.241-4.074-.724a9.742 9.742 0 01-3.19-2.037 9.35 9.35 0 01-2.09-3.109zm13.242-3.967c0-.768-.17-1.447-.51-2.037A3.534 3.534 0 0026.4 8.237c-.572-.34-1.242-.51-2.01-.51-.77 0-1.448.17-2.038.51-.59.34-1.054.804-1.394 1.394-.321.59-.482 1.268-.482 2.037 0 .75.16 1.43.482 2.037.34.59.804 1.054 1.394 1.394.59.34 1.269.51 2.037.51.769 0 1.439-.17 2.01-.51a3.534 3.534 0 001.367-1.394c.34-.607.51-1.287.51-2.037z" />
        <path
            d="M10.668 15.662h-3.94V5.798c0-.912.08-1.609.241-2.091.16-.482.375-.83.643-1.045V2.42H.08v.242c.25.232.438.598.563 1.099.125.482.188 1.161.188 2.037v11.74c0 .876-.072 1.564-.215 2.064-.125.482-.33.84-.616 1.072v.241h11.74c.43 0 .85.018 1.26.054.411.036.768.098 1.072.188V14.83h-.214c-.25.286-.626.5-1.126.643-.482.125-1.17.188-2.064.188zM46.281 11.722c.125.482.188 1.17.188 2.064v2.087c-.107.002-.214.003-.322.003-.911 0-1.706-.16-2.385-.482a3.856 3.856 0 01-1.555-1.42c-.357-.626-.536-1.35-.536-2.172 0-.876.196-1.626.59-2.252.393-.625.973-1.099 1.742-1.42.786-.34 1.742-.51 2.868-.51.465 0 .875.027 1.233.08.375.054.715.135 1.019.242.232.072.455.17.67.295.232.107.437.241.616.402h.241V2.072a3.871 3.871 0 01-1.18.188c-.267 0-.651-.036-1.152-.108a11.664 11.664 0 00-1.688-.107c-2.306 0-4.289.384-5.95 1.153-1.663.768-2.94 1.876-3.834 3.323-.893 1.448-1.34 3.2-1.34 5.254 0 1.912.447 3.583 1.34 5.013.894 1.43 2.136 2.537 3.726 3.323 1.608.787 3.475 1.18 5.602 1.18 1.162 0 2.305-.08 3.43-.242a16.436 16.436 0 003.137-.75v-.241c-.268-.215-.465-.518-.59-.912-.125-.393-.187-1.01-.187-1.85v-3.51c0-.894.062-1.582.187-2.064.125-.5.322-.867.59-1.1v-.24h-7.023v.24c.25.233.438.6.563 1.1z" />
        <path fill-rule="evenodd" clip-rule="evenodd"
            d="M53.724 15.635c-.483-1.197-.724-2.52-.724-3.967s.241-2.77.724-3.967a9.348 9.348 0 012.09-3.11 9.742 9.742 0 013.19-2.037c1.233-.482 2.591-.723 4.075-.723 1.465 0 2.814.241 4.047.723a9.383 9.383 0 013.19 2.038A9.02 9.02 0 0172.38 7.7c.5 1.197.75 2.52.75 3.967s-.25 2.77-.75 3.967a9.022 9.022 0 01-2.064 3.11 9.383 9.383 0 01-3.19 2.036c-1.233.483-2.582.724-4.048.724-1.483 0-2.84-.241-4.074-.724a9.742 9.742 0 01-3.19-2.037 9.35 9.35 0 01-2.09-3.109zm13.241-3.967c0-.768-.17-1.447-.51-2.037a3.534 3.534 0 00-1.366-1.394c-.572-.34-1.242-.51-2.01-.51-.769 0-1.448.17-2.038.51-.59.34-1.054.804-1.393 1.394-.322.59-.483 1.268-.483 2.037 0 .75.16 1.43.483 2.037.34.59.804 1.054 1.393 1.394.59.34 1.27.51 2.038.51.768 0 1.438-.17 2.01-.51a3.534 3.534 0 001.367-1.394c.34-.607.51-1.287.51-2.037z" />
        <path
            d="M74.41 3.76c.125.483.187 1.162.187 2.038v11.74c0 .876-.062 1.564-.187 2.064-.126.482-.313.84-.563 1.072v.241h7.398v-.24c-.25-.233-.438-.59-.563-1.073-.125-.5-.188-1.188-.188-2.064V5.798c0-.876.063-1.555.188-2.037.125-.5.313-.867.563-1.1v-.24h-7.398v.24c.25.233.438.6.563 1.1z" />
        <path fill-rule="evenodd" clip-rule="evenodd"
            d="M88.733 19.629c.16.482.375.83.643 1.045v.241h-7.532v-.24c.25-.233.438-.59.563-1.073.125-.5.187-1.188.187-2.064V5.798c0-.876-.071-1.555-.214-2.037-.125-.5-.33-.867-.617-1.1v-.24h8.605c1.608 0 2.984.259 4.128.777 1.161.5 2.055 1.224 2.68 2.17.625.93.938 2.056.938 3.378 0 1.269-.268 2.395-.804 3.378-.536.982-1.358 1.84-2.466 2.573-1.108.715-2.528 1.313-4.262 1.796l-2.09.6v.445c0 .911.08 1.608.24 2.09zm.509-7.88l-.75.19V7.352h1.366c.75 0 1.323.161 1.716.483.393.304.59.741.59 1.313 0 .644-.233 1.17-.697 1.582-.465.41-1.207.75-2.225 1.018z" />
        <path
            d="M108.797 7.969h.214v-5.79a3.017 3.017 0 01-.992.188c-.196 0-.491-.027-.884-.08a9.777 9.777 0 00-1.314-.081c-2.287 0-4.065.491-5.334 1.474-1.25.965-1.876 2.279-1.876 3.94 0 .858.197 1.671.59 2.44.393.75.965 1.42 1.715 2.01l.724.536c.697.518 1.17.93 1.42 1.233.251.304.376.634.376.992 0 .375-.161.688-.483.938-.304.25-.723.375-1.26.375-.303 0-.598-.035-.884-.107a3.864 3.864 0 01-.724-.322 2.353 2.353 0 01-.456-.268l-.401-.402h-.215v5.656c.357.125.885.223 1.581.295.715.09 1.412.134 2.091.134 2.413 0 4.271-.518 5.576-1.555 1.304-1.054 1.956-2.475 1.956-4.262 0-.679-.107-1.322-.321-1.93a6.219 6.219 0 00-.939-1.715 8.14 8.14 0 00-1.527-1.501l-.724-.536a8.558 8.558 0 01-.858-.778 1.137 1.137 0 01-.241-.696c0-.268.116-.5.348-.697.233-.197.554-.295.965-.295.197 0 .376.027.536.08.179.036.331.08.456.134.161.072.313.161.456.268.161.09.304.197.429.322zM111.176 5.798c0-.876-.062-1.555-.188-2.037-.125-.5-.312-.867-.562-1.1v-.24h7.371v.24c-.25.233-.438.6-.563 1.1-.107.482-.161 1.161-.161 2.037v7.8c0 .679.143 1.197.429 1.554.304.358.742.537 1.313.537.572 0 1.01-.18 1.314-.537.304-.357.455-.875.455-1.554v-7.8c0-.876-.062-1.555-.187-2.037-.107-.5-.295-.867-.563-1.1v-.24h7.398v.24c-.268.233-.465.6-.59 1.1-.125.482-.187 1.161-.187 2.037v8.363c0 1.554-.304 2.877-.912 3.967-.589 1.09-1.456 1.93-2.6 2.52-1.126.571-2.502.857-4.128.857-1.608 0-2.984-.286-4.128-.858a6.211 6.211 0 01-2.6-2.52c-.607-1.09-.911-2.412-.911-3.966V5.798zM128.203 3.787c.143.519.214 1.278.214 2.279v11.472c0 .876-.062 1.564-.187 2.064-.125.482-.313.84-.563 1.072v.241h7.237v-.24c-.25-.233-.438-.59-.563-1.073-.125-.5-.188-1.188-.188-2.064v-5.553l3.887 3.409h.134l3.78-3.714v5.858c0 .876-.063 1.564-.188 2.064-.125.482-.322.84-.59 1.072v.241h7.264v-.24c-.268-.233-.464-.59-.59-1.073-.125-.5-.187-1.188-.187-2.064V6.066c0-1 .071-1.76.214-2.279.161-.518.384-.893.67-1.125V2.42h-6.379v.188a1.9 1.9 0 01.214 1.313c-.089.43-.357.858-.804 1.287l-3.417 3.435-3.579-3.489c-.446-.446-.714-.875-.804-1.286-.089-.429-.018-.849.215-1.26V2.42h-6.46v.242c.304.232.527.607.67 1.125z" />
    </g>
</svg>